<svg width="20" height="12" viewBox="0 0 20 12" fill="none" xmlns="http://www.w3.org/2000/svg">
<path d="M6.16536 8.20947C6.16536 8.01904 6.13607 7.84814 6.07747 7.69678C6.02376 7.54053 5.92122 7.39893 5.76986 7.27197C5.61849 7.14014 5.40609 7.01074 5.13265 6.88379C4.85921 6.75684 4.50521 6.625 4.07064 6.48828C3.58724 6.33203 3.12825 6.15625 2.69368 5.96094C2.264 5.76562 1.88314 5.53857 1.55111 5.27979C1.22396 5.01611 0.965169 4.71094 0.774739 4.36426C0.589192 4.01758 0.496419 3.61475 0.496419 3.15576C0.496419 2.71143 0.594075 2.30859 0.789388 1.94727C0.9847 1.58105 1.25814 1.26855 1.6097 1.00977C1.96126 0.746094 2.3763 0.543457 2.85482 0.401855C3.33822 0.260254 3.868 0.189453 4.44417 0.189453C5.23031 0.189453 5.91634 0.331055 6.50228 0.614258C7.08822 0.897461 7.54232 1.28564 7.86458 1.77881C8.19173 2.27197 8.35531 2.83594 8.35531 3.4707H6.17269C6.17269 3.1582 6.10677 2.88477 5.97493 2.65039C5.84798 2.41113 5.65267 2.22314 5.389 2.08643C5.13021 1.94971 4.80306 1.88135 4.40755 1.88135C4.02669 1.88135 3.70931 1.93994 3.4554 2.05713C3.2015 2.16943 3.01107 2.32324 2.88411 2.51855C2.75716 2.70898 2.69368 2.92383 2.69368 3.16309C2.69368 3.34375 2.73763 3.50732 2.82552 3.65381C2.91829 3.80029 3.05501 3.93701 3.23568 4.06396C3.41634 4.19092 3.63851 4.31055 3.90218 4.42285C4.16585 4.53516 4.47103 4.64502 4.81771 4.75244C5.39876 4.92822 5.90902 5.12598 6.34847 5.3457C6.79281 5.56543 7.1639 5.81201 7.46175 6.08545C7.7596 6.35889 7.98421 6.66895 8.13558 7.01562C8.28695 7.3623 8.36263 7.75537 8.36263 8.19482C8.36263 8.65869 8.2723 9.07373 8.09163 9.43994C7.91097 9.80615 7.64974 10.1162 7.30794 10.3701C6.96615 10.624 6.55843 10.8169 6.0848 10.9487C5.61117 11.0806 5.08138 11.1465 4.49544 11.1465C3.9681 11.1465 3.44808 11.0781 2.93538 10.9414C2.42269 10.7998 1.95638 10.5874 1.53646 10.3042C1.12142 10.021 0.789388 9.65967 0.540364 9.22021C0.291341 8.78076 0.166829 8.26074 0.166829 7.66016H2.37142C2.37142 7.99219 2.42269 8.27295 2.52523 8.50244C2.62777 8.73193 2.77181 8.91748 2.95736 9.05908C3.14779 9.20068 3.3724 9.30322 3.63118 9.3667C3.89486 9.43018 4.18294 9.46191 4.49544 9.46191C4.8763 9.46191 5.1888 9.4082 5.43294 9.30078C5.68197 9.19336 5.86507 9.04443 5.98226 8.854C6.10433 8.66357 6.16536 8.44873 6.16536 8.20947ZM14.2915 0.335938V11H12.1016V0.335938H14.2915ZM17.5728 0.335938V2.05713H8.87158V0.335938H17.5728ZM16.6608 9.98193C16.6608 9.66943 16.7682 9.4082 16.9831 9.19824C17.2028 8.98828 17.4933 8.8833 17.8547 8.8833C18.216 8.8833 18.5041 8.98828 18.7189 9.19824C18.9386 9.4082 19.0485 9.66943 19.0485 9.98193C19.0485 10.2944 18.9386 10.5557 18.7189 10.7656C18.5041 10.9756 18.216 11.0806 17.8547 11.0806C17.4933 11.0806 17.2028 10.9756 16.9831 10.7656C16.7682 10.5557 16.6608 10.2944 16.6608 9.98193Z" fill="#515151"/>
</svg>
