<svg width="280" height="42" viewBox="0 0 280 42" fill="none" xmlns="http://www.w3.org/2000/svg">
<rect width="280" height="42" rx="6" fill="black"/>
<path d="M21.13 16.0481C21.8981 16.0481 22.861 15.5128 23.4345 14.7991C23.9538 14.1523 24.3325 13.249 24.3325 12.3457C24.3325 12.223 24.3217 12.1004 24.3 12C23.4453 12.0335 22.4175 12.591 21.8008 13.3382C21.3139 13.907 20.8703 14.7991 20.8703 15.7135C20.8703 15.8474 20.8919 15.9812 20.9027 16.0258C20.9568 16.037 21.0434 16.0481 21.13 16.0481ZM18.4251 29.5418C19.4746 29.5418 19.9398 28.8169 21.249 28.8169C22.5797 28.8169 22.8719 29.5195 24.0404 29.5195C25.1872 29.5195 25.9554 28.4266 26.6803 27.356C27.4917 26.1293 27.8271 24.9249 27.8488 24.8692C27.773 24.8469 25.5767 23.9213 25.5767 21.3229C25.5767 19.0702 27.3078 18.0554 27.4052 17.9774C26.2583 16.2823 24.5164 16.2377 24.0404 16.2377C22.7529 16.2377 21.7034 17.0406 21.0434 17.0406C20.3293 17.0406 19.388 16.2823 18.2736 16.2823C16.1531 16.2823 14 18.0889 14 21.5013C14 23.6202 14.8006 25.8617 15.7852 27.3114C16.6291 28.5381 17.3648 29.5418 18.4251 29.5418Z" fill="white"/>
<path d="M116.494 17.5767L113.435 26H112.184L115.707 16.7578H116.513L116.494 17.5767ZM119.059 26L115.993 17.5767L115.974 16.7578H116.78L120.315 26H119.059ZM118.9 22.5786V23.5815H113.708V22.5786H118.9ZM122.55 20.4521V28.6406H121.369V19.1318H122.448L122.55 20.4521ZM127.177 22.5088V22.6421C127.177 23.1414 127.118 23.6048 127 24.0322C126.881 24.4554 126.708 24.8236 126.479 25.1367C126.255 25.4499 125.978 25.6932 125.647 25.8667C125.317 26.0402 124.939 26.127 124.511 26.127C124.075 26.127 123.69 26.055 123.356 25.9111C123.022 25.7673 122.738 25.5578 122.505 25.2827C122.273 25.0076 122.086 24.6776 121.947 24.2925C121.811 23.9074 121.718 23.4736 121.667 22.9912V22.2803C121.718 21.7725 121.813 21.3175 121.953 20.9155C122.093 20.5135 122.277 20.1707 122.505 19.8872C122.738 19.5994 123.02 19.3815 123.35 19.2334C123.68 19.0811 124.061 19.0049 124.492 19.0049C124.924 19.0049 125.307 19.0895 125.641 19.2588C125.975 19.4238 126.257 19.6608 126.485 19.9697C126.714 20.2786 126.885 20.6489 127 21.0806C127.118 21.508 127.177 21.984 127.177 22.5088ZM125.997 22.6421V22.5088C125.997 22.166 125.961 21.8444 125.889 21.5439C125.817 21.2393 125.705 20.9727 125.552 20.7441C125.404 20.5114 125.214 20.3294 124.981 20.1982C124.748 20.0628 124.471 19.9951 124.149 19.9951C123.853 19.9951 123.595 20.0459 123.375 20.1475C123.159 20.249 122.975 20.3866 122.823 20.5601C122.67 20.7293 122.546 20.924 122.448 21.144C122.355 21.3599 122.285 21.5841 122.239 21.8169V23.4609C122.323 23.7572 122.442 24.0365 122.594 24.2988C122.747 24.557 122.95 24.7664 123.204 24.9272C123.458 25.0838 123.777 25.1621 124.162 25.1621C124.479 25.1621 124.752 25.0965 124.981 24.9653C125.214 24.8299 125.404 24.6458 125.552 24.4131C125.705 24.1803 125.817 23.9137 125.889 23.6133C125.961 23.3086 125.997 22.9849 125.997 22.6421ZM129.85 20.4521V28.6406H128.669V19.1318H129.748L129.85 20.4521ZM134.477 22.5088V22.6421C134.477 23.1414 134.418 23.6048 134.299 24.0322C134.181 24.4554 134.007 24.8236 133.779 25.1367C133.555 25.4499 133.277 25.6932 132.947 25.8667C132.617 26.0402 132.238 26.127 131.811 26.127C131.375 26.127 130.99 26.055 130.656 25.9111C130.321 25.7673 130.038 25.5578 129.805 25.2827C129.572 25.0076 129.386 24.6776 129.247 24.2925C129.111 23.9074 129.018 23.4736 128.967 22.9912V22.2803C129.018 21.7725 129.113 21.3175 129.253 20.9155C129.393 20.5135 129.577 20.1707 129.805 19.8872C130.038 19.5994 130.319 19.3815 130.649 19.2334C130.979 19.0811 131.36 19.0049 131.792 19.0049C132.224 19.0049 132.607 19.0895 132.941 19.2588C133.275 19.4238 133.557 19.6608 133.785 19.9697C134.014 20.2786 134.185 20.6489 134.299 21.0806C134.418 21.508 134.477 21.984 134.477 22.5088ZM133.296 22.6421V22.5088C133.296 22.166 133.26 21.8444 133.188 21.5439C133.117 21.2393 133.004 20.9727 132.852 20.7441C132.704 20.5114 132.514 20.3294 132.281 20.1982C132.048 20.0628 131.771 19.9951 131.449 19.9951C131.153 19.9951 130.895 20.0459 130.675 20.1475C130.459 20.249 130.275 20.3866 130.123 20.5601C129.97 20.7293 129.845 20.924 129.748 21.144C129.655 21.3599 129.585 21.5841 129.539 21.8169V23.4609C129.623 23.7572 129.742 24.0365 129.894 24.2988C130.046 24.557 130.25 24.7664 130.503 24.9272C130.757 25.0838 131.077 25.1621 131.462 25.1621C131.779 25.1621 132.052 25.0965 132.281 24.9653C132.514 24.8299 132.704 24.6458 132.852 24.4131C133.004 24.1803 133.117 23.9137 133.188 23.6133C133.26 23.3086 133.296 22.9849 133.296 22.6421ZM137.251 16.25V26H136.07V16.25H137.251ZM141.986 26.127C141.508 26.127 141.074 26.0465 140.685 25.8857C140.3 25.7207 139.968 25.4901 139.688 25.1938C139.413 24.8976 139.202 24.5464 139.054 24.1401C138.906 23.7339 138.832 23.2896 138.832 22.8071V22.5405C138.832 21.9819 138.914 21.4847 139.079 21.0488C139.244 20.6087 139.468 20.2363 139.752 19.9316C140.035 19.627 140.357 19.3963 140.717 19.2397C141.076 19.0832 141.449 19.0049 141.834 19.0049C142.325 19.0049 142.748 19.0895 143.104 19.2588C143.463 19.4281 143.757 19.665 143.986 19.9697C144.214 20.2702 144.384 20.6257 144.494 21.0361C144.604 21.4424 144.659 21.8867 144.659 22.3691V22.896H139.53V21.9375H143.484V21.8486C143.467 21.5439 143.404 21.2477 143.294 20.96C143.188 20.6722 143.019 20.4352 142.786 20.249C142.553 20.0628 142.236 19.9697 141.834 19.9697C141.567 19.9697 141.322 20.0269 141.098 20.1411C140.873 20.2511 140.681 20.4162 140.52 20.6362C140.359 20.8563 140.234 21.125 140.146 21.4424C140.057 21.7598 140.012 22.1258 140.012 22.5405V22.8071C140.012 23.133 140.057 23.4398 140.146 23.7275C140.239 24.0111 140.372 24.2607 140.545 24.4766C140.723 24.6924 140.937 24.8617 141.187 24.9844C141.44 25.1071 141.728 25.1685 142.05 25.1685C142.465 25.1685 142.816 25.0838 143.104 24.9146C143.391 24.7453 143.643 24.5189 143.859 24.2354L144.57 24.8003C144.422 25.0246 144.233 25.2383 144.005 25.4414C143.776 25.6445 143.495 25.8096 143.161 25.9365C142.831 26.0635 142.439 26.127 141.986 26.127ZM151.635 24.648H156.406V25.519H145.811V24.648H150.556V22.451H147.137V18.85H154.053V17.03H147.111V16.159H155.093V19.708H148.19V21.593H155.366V22.451H151.635V24.648ZM166.818 24.648H171.589V25.519H160.994V24.648H165.739V22.451H162.32V18.85H169.236V17.03H162.294V16.159H170.276V19.708H163.373V21.593H170.549V22.451H166.818V24.648ZM181.052 17.706V17.407H174.11V16.536H182.105V17.706C182.105 19.188 182.105 20.865 181.65 23.387L180.584 23.27C181.052 20.891 181.052 19.149 181.052 17.706ZM172.979 24.375H183.522V25.259H172.979V24.375ZM194.493 15.314V23.829H193.427V15.314H194.493ZM186.238 18.98C186.238 20.137 187.096 20.943 188.227 20.943C189.384 20.943 190.242 20.137 190.242 18.98C190.242 17.849 189.384 17.043 188.227 17.043C187.096 17.043 186.238 17.849 186.238 18.98ZM191.282 18.98C191.282 20.67 189.969 21.866 188.227 21.866C186.498 21.866 185.198 20.67 185.198 18.98C185.198 17.303 186.498 16.12 188.227 16.12C189.969 16.12 191.282 17.303 191.282 18.98ZM188.058 25.831H194.844V26.702H186.992V22.958H188.058V25.831Z" fill="white"/>
</svg>
