<svg width="12" height="12" viewBox="0 0 12 12" fill="none" xmlns="http://www.w3.org/2000/svg">
<path d="M5.56966 8.77344L8.08187 0.335938H10.5282L6.81478 11H5.20345L5.56966 8.77344ZM3.25521 0.335938L5.76009 8.77344L6.14095 11H4.51497L0.823567 0.335938H3.25521ZM9.55029 9.98193C9.55029 9.66943 9.65771 9.4082 9.87256 9.19824C10.0923 8.98828 10.3828 8.8833 10.7441 8.8833C11.1055 8.8833 11.3936 8.98828 11.6084 9.19824C11.8281 9.4082 11.938 9.66943 11.938 9.98193C11.938 10.2944 11.8281 10.5557 11.6084 10.7656C11.3936 10.9756 11.1055 11.0806 10.7441 11.0806C10.3828 11.0806 10.0923 10.9756 9.87256 10.7656C9.65771 10.5557 9.55029 10.2944 9.55029 9.98193Z" fill="#515151"/>
</svg>
