<svg width="18" height="18" viewBox="0 0 18 18" fill="none" xmlns="http://www.w3.org/2000/svg">
<path d="M9 2.25C10.2375 2.25 11.25 3.2625 11.25 4.5C11.25 5.7375 10.2375 6.75 9 6.75C7.7625 6.75 6.75 5.7375 6.75 4.5C6.75 3.2625 7.7625 2.25 9 2.25ZM9 12.375C12.0375 12.375 15.525 13.8263 15.75 14.625V15.75H2.25V14.6363C2.475 13.8263 5.9625 12.375 9 12.375ZM9 0C6.51375 0 4.5 2.01375 4.5 4.5C4.5 6.98625 6.51375 9 9 9C11.4862 9 13.5 6.98625 13.5 4.5C13.5 2.01375 11.4862 0 9 0ZM9 10.125C5.99625 10.125 0 11.6325 0 14.625V18H18V14.625C18 11.6325 12.0037 10.125 9 10.125Z" fill="black"/>
</svg>
