<svg width="108" height="108" viewBox="0 0 108 108" fill="none" xmlns="http://www.w3.org/2000/svg">
<circle cx="54" cy="54" r="54" fill="#4A4A4A"/>
<path d="M53.9995 54C62.287 54 68.9995 47.2875 68.9995 39C68.9995 30.7125 62.287 24 53.9995 24C45.712 24 38.9995 30.7125 38.9995 39C38.9995 47.2875 45.712 54 53.9995 54ZM53.9995 61.5C43.987 61.5 23.9995 66.525 23.9995 76.5V80.25C23.9995 82.3125 25.687 84 27.7495 84H80.2495C82.312 84 83.9995 82.3125 83.9995 80.25V76.5C83.9995 66.525 64.012 61.5 53.9995 61.5Z" fill="#CACACA"/>
</svg>
