<svg width="23" height="23" viewBox="0 0 23 23" fill="none" xmlns="http://www.w3.org/2000/svg">
<circle cx="11.5" cy="11.5" r="11.5" fill="#CACACA"/>
<path d="M11.7733 14.0387C13.0234 14.0387 14.0367 13.0253 14.0367 11.7752C14.0367 10.5251 13.0234 9.51172 11.7733 9.51172C10.5232 9.51172 9.50977 10.5251 9.50977 11.7752C9.50977 13.0253 10.5232 14.0387 11.7733 14.0387Z" fill="#4A4A4A"/>
<path d="M9.65158 4.69922L8.35715 6.1139H6.11488C5.3368 6.1139 4.7002 6.75051 4.7002 7.52858V16.0167C4.7002 16.7948 5.3368 17.4314 6.11488 17.4314H17.4323C18.2104 17.4314 18.847 16.7948 18.847 16.0167V7.52858C18.847 6.75051 18.2104 6.1139 17.4323 6.1139H15.1901L13.8956 4.69922H9.65158ZM11.7736 15.3093C9.82135 15.3093 8.2369 13.7249 8.2369 11.7726C8.2369 9.82037 9.82135 8.23593 11.7736 8.23593C13.7259 8.23593 15.3103 9.82037 15.3103 11.7726C15.3103 13.7249 13.7259 15.3093 11.7736 15.3093Z" fill="#4A4A4A"/>
</svg>
